<?xml version="1.0" encoding="UTF-8"?>
<!DOCTYPE svg PUBLIC "-//W3C//DTD SVG 1.0//EN" "http://www.w3.org/TR/2001/REC-SVG-20010904/DTD/svg10.dtd">
<!-- Creator: CorelDRAW X6 -->
<svg xmlns="http://www.w3.org/2000/svg" xml:space="preserve" width="38.0898mm" height="24.8015mm" version="1.0" style="shape-rendering:geometricPrecision; text-rendering:geometricPrecision; image-rendering:optimizeQuality; fill-rule:evenodd; clip-rule:evenodd"
viewBox="0 0 3809 2980"
 xmlns:xlink="http://www.w3.org/1999/xlink">
 <defs>
  <style type="text/css">
   <![CDATA[
    .fil0 {fill:#8c271e}
    .fil1 {fill:#222}
    .fil2 {fill:#222;fill-rule:nonzero}
   ]]>
  </style>
 </defs>
 <g id="Warstwa_x0020_1">
  <metadata id="CorelCorpID_0Corel-Layer"/>
  <path class="fil0" d="M1781 784l-10 29c-2,4 -3,5 -4,10 4,0 5,0 9,0 36,-3 72,-5 107,-6 7,0 13,0 20,0 37,0 67,1 103,6l44 7c6,2 16,4 23,5 27,4 90,29 111,39 28,13 49,26 73,41 20,12 32,22 48,34l44 36c6,6 22,22 28,26l16 -34c-5,-3 -22,-21 -28,-26 -33,-29 -52,-47 -91,-72 -144,-94 -293,-116 -458,-98 -8,1 -31,5 -38,5l3 -2zm626 169c4,-2 33,-47 46,-59 84,-78 166,-53 266,-24 1,-5 -2,-16 -3,-21 -4,-17 -8,-35 -12,-52 -1,-4 -3,-7 -2,-11l-62 -6c-22,-3 -42,-6 -64,-9l-66 -13c-10,-1 -40,13 -52,13 -3,-16 40,-19 61,-37 38,-31 40,-31 78,-57 9,-6 45,-24 48,-28l-72 -111c-14,-18 -37,-47 -52,-63 -4,12 -18,37 -24,49l-74 147c-33,68 -65,141 -87,216 1,6 65,53 73,66l-2 0zm-577 -817c121,-43 222,-59 352,-49 144,11 287,54 425,106 -5,10 -17,25 -24,36 -22,34 -47,76 -67,111 -79,143 -180,360 -228,516l33 23c7,-20 12,-41 19,-61 7,-19 14,-37 21,-55 14,-35 31,-70 48,-103 25,-49 52,-98 76,-147l21 -44c2,-4 0,-5 4,-4 -1,-5 16,-30 19,-36 26,-48 59,-102 86,-150 4,-7 7,-12 11,-18l53 -94c-9,-3 -21,-5 -29,-6 -104,-28 -229,-66 -334,-88 -11,-2 -20,-5 -30,-7 -70,-12 -122,-21 -193,-20 -68,8 -121,11 -185,43l-59 34c-4,3 -16,11 -19,14l0 -1zm-2 32c1,11 0,24 1,35 2,95 4,190 0,284 0,12 -2,24 -2,36 0,11 -2,25 -3,37l-9 76c-5,35 -16,87 -26,121 148,-17 291,-15 427,54 8,4 51,28 53,29 73,-204 165,-416 281,-598 6,-10 18,-25 22,-35 -226,-85 -471,-136 -706,-53 -7,3 -34,13 -38,13l0 1z"/>
  <path class="fil1" d="M2442 979l-43 91 -40 -22c35,42 56,78 62,81 8,-13 246,-201 268,-208l458 457c15,-13 140,-183 147,-202 16,8 11,3 25,21l490 656c-28,-14 -47,-32 -71,-49l-448 -337 -77 99c-19,26 -57,82 -77,99 -24,-19 -44,-40 -69,-61 -91,-76 -275,-241 -344,-293 -35,-26 -100,-96 -138,-115l-224 129 -122 -92c-48,-34 -327,-255 -359,-269 -22,21 -54,44 -78,65l-548 445c-17,-9 -70,-71 -84,-89 -14,-19 -65,-75 -85,-86l-304 269c-36,32 -65,59 -100,86 -20,-13 -27,-31 -46,-49 -19,-18 -28,-34 -44,-51 -29,11 -201,128 -242,155 -41,26 -78,51 -122,79 -34,22 -84,59 -118,74 42,-44 72,-83 122,-127l245 -260c29,-26 40,-37 63,-63 20,-22 36,-47 61,-62 23,12 41,41 71,70 24,24 44,50 73,67 19,-11 14,-13 29,-31l281 -322c24,-25 28,-33 52,-57 20,-20 28,-36 51,-56l158 213c23,-10 103,-82 126,-103l197 -175c22,-22 56,-45 81,-69l25 -22 -33 -2 15 -52c19,-64 36,-109 46,-179 6,-49 12,-97 14,-146 4,-93 2,-188 0,-282 0,-14 -44,8 -58,13 22,-36 49,-77 66,-105 7,-12 20,-19 31,-27 96,-65 205,-89 319,-84 96,4 214,34 306,61 68,20 141,37 210,55 29,5 56,14 84,22l-80 141c-32,56 -66,111 -96,168 -10,19 26,48 38,63l90 138 2 -1c7,-3 14,-7 21,-9 4,-2 8,-3 12,-5l80 -28c68,-21 136,-36 206,-50l50 -10c4,-1 8,-1 13,-2l115 -19 0 0c4,-1 8,-1 12,-2l51 -8c39,-5 77,-12 116,-17l0 0c-27,27 -56,52 -85,76l-39 30c-3,2 -6,5 -9,7l-72 47c-4,2 -7,5 -11,7 -16,10 -36,18 -53,27 -16,8 -33,15 -49,21l-114 34c-32,6 -63,11 -95,14 -33,3 -65,4 -98,3l-4 19c5,21 20,72 16,92l-9 46 -45 -13c-44,-13 -98,-30 -144,-25 -18,2 -34,7 -50,15 -12,7 -21,15 -31,25 -12,11 -23,28 -32,41 -1,2 -3,5 -4,7l-1 2 -2 2 -1 4zm199 -220l63 6 0 0c2,0 4,1 7,1l16 2 -4 20c0,1 1,2 1,3l0 1c3,14 19,68 16,83l-5 23 -22 -7c-67,-20 -144,-45 -211,-9 -14,8 -23,17 -35,28 -13,12 -26,31 -36,46 -1,2 -2,4 -3,6l-1 1 -3 4 -34 73 -20 -11c-11,-6 -22,-19 -32,-28l-43 -35c-16,-11 -29,-23 -46,-32 -24,-14 -46,-28 -72,-40 -18,-8 -36,-15 -55,-22 -15,-5 -35,-13 -51,-15 -8,-1 -16,-3 -24,-5l-43 -7c-34,-4 -66,-5 -100,-5 -6,0 -13,0 -19,0 -35,1 -71,3 -106,6 -4,0 -8,1 -12,1l-27 -2 8 -26c13,-43 26,-76 36,-122 4,-20 8,-40 11,-60 6,-50 12,-98 14,-148 4,-94 2,-189 0,-283 0,-11 0,-23 -1,-34l-28 7 33 -53c5,-8 17,-16 25,-21 110,-64 179,-85 306,-80 94,4 210,33 300,60 69,20 142,37 211,55 20,4 37,9 57,14l-67 118c-32,56 -66,112 -96,168 -3,6 -7,12 -11,18 -1,1 -2,3 -2,4 19,21 37,43 54,65l81 125 -11 12c-1,2 -3,3 -5,5l0 0 0 0 0 0 0 0 0 0 0 0 0 0 0 0 0 0 0 0 0 0 0 0 0 0 0 0 0 0 0 0 0 0 0 0 0 0 0 0 0 0 0 0 0 0 0 0 0 0 0 0 0 0 0 0 0 0 0 0 0 0 0 0 0 0 0 0 0 0 0 0 0 0 -1 1 0 0 0 0 0 0 0 0 0 0 0 0 0 0 0 0 0 0 0 0 0 0 0 0 0 0 0 0 0 0 0 0 0 0 0 0 0 0 0 0 0 0 0 0 0 0 0 0 0 0 0 0 0 0 0 0 0 0 0 0 0 0 0 0 0 0 0 0 0 0 0 0 0 0 0 0 0 0 0 0 0 0 0 0 0 0 0 0 0 0 0 0 0 0 0 0 0 0 0 0 0 0 0 0 0 0 0 0 0 0 0 0 0 0 0 0 0 0 0 0 0 0 0 0 0 0 0 0 0 0 0 0 0 0 0 0 0 0 0 0 0 0 0 0c-7,4 -15,8 -21,12 -13,9 -26,17 -38,26 -10,7 -19,14 -28,21l37 7c21,4 42,7 63,9l-26 14z"/>  
 </g>
</svg>