<svg width="98" height="68" viewBox="0 0 98 68" fill="none" xmlns="http://www.w3.org/2000/svg">
<mask id="mask0" mask-type="alpha" maskUnits="userSpaceOnUse" x="0" y="0" width="98" height="68">
<rect width="97.2352" height="67.8603" fill="#C4C4C4"/>
</mask>
<g mask="url(#mask0)">
<path d="M96.1799 33.1515L55.2116 58.3109L74.1471 33.6097L53.8048 8.96294L96.1799 33.1515Z" fill="#C0392B"/>
<path d="M34.4022 38.5045L33.5924 40.7927H33.2549L32.6797 39.1473L32.098 40.7927H31.7606L30.954 38.5045H31.3749L31.947 40.211L32.5415 38.5045H32.8372L33.4188 40.2238L34.0037 38.5045H34.4022ZM36.0557 40.0021H34.9374C34.9459 40.1756 34.9888 40.3042 35.0659 40.3877C35.1452 40.4692 35.2619 40.5099 35.4162 40.5099C35.594 40.5099 35.759 40.452 35.9111 40.3363L36.0268 40.6127C35.9497 40.6748 35.8543 40.7252 35.7408 40.7637C35.6294 40.8002 35.5158 40.8184 35.4001 40.8184C35.1345 40.8184 34.9256 40.7434 34.7735 40.5934C34.6213 40.4434 34.5453 40.2378 34.5453 39.9764C34.5453 39.8114 34.5785 39.6647 34.6449 39.5361C34.7113 39.4076 34.8045 39.308 34.9245 39.2373C35.0445 39.1644 35.1805 39.128 35.3326 39.128C35.5554 39.128 35.7311 39.2008 35.8597 39.3465C35.9904 39.4901 36.0557 39.6882 36.0557 39.941V40.0021ZM35.3423 39.4172C35.2352 39.4172 35.1473 39.4494 35.0788 39.5136C35.0123 39.5758 34.9695 39.6668 34.9502 39.7868H35.7054C35.6926 39.6647 35.6551 39.5725 35.5929 39.5104C35.533 39.4483 35.4494 39.4172 35.3423 39.4172ZM37.45 39.128C37.5914 39.128 37.7156 39.1633 37.8227 39.234C37.932 39.3026 38.0166 39.4001 38.0766 39.5265C38.1366 39.6529 38.1666 39.7996 38.1666 39.9668C38.1666 40.1339 38.1355 40.2828 38.0734 40.4135C38.0134 40.542 37.9288 40.6416 37.8195 40.7123C37.7124 40.783 37.5892 40.8184 37.45 40.8184C37.33 40.8184 37.2229 40.7927 37.1286 40.7412C37.0365 40.6898 36.9668 40.6181 36.9197 40.5259V40.7927H36.5244V38.4274H36.9229V39.414C36.9722 39.324 37.0429 39.2544 37.135 39.2051C37.2271 39.1537 37.3321 39.128 37.45 39.128ZM37.3439 40.5034C37.4767 40.5034 37.5796 40.4563 37.6524 40.362C37.7253 40.2678 37.7617 40.136 37.7617 39.9668C37.7617 39.7996 37.7253 39.6711 37.6524 39.5811C37.5796 39.489 37.4757 39.4429 37.3407 39.4429C37.2057 39.4429 37.1018 39.489 37.029 39.5811C36.9561 39.6732 36.9197 39.8039 36.9197 39.9732C36.9197 40.1446 36.9561 40.2763 37.029 40.3685C37.1018 40.4584 37.2068 40.5034 37.3439 40.5034ZM39.6852 38.5045H40.5271C40.9021 38.5045 41.1924 38.6042 41.398 38.8034C41.6058 39.0027 41.7098 39.2833 41.7098 39.6454C41.7098 40.0096 41.6058 40.2924 41.398 40.4938C41.1924 40.693 40.9021 40.7927 40.5271 40.7927H39.6852V38.5045ZM40.5014 40.4552C41.0285 40.4552 41.292 40.1853 41.292 39.6454C41.292 39.1098 41.0285 38.842 40.5014 38.842H40.0997V40.4552H40.5014ZM43.6531 40.0021H42.5348C42.5433 40.1756 42.5862 40.3042 42.6633 40.3877C42.7426 40.4692 42.8593 40.5099 43.0136 40.5099C43.1914 40.5099 43.3564 40.452 43.5085 40.3363L43.6242 40.6127C43.5471 40.6748 43.4517 40.7252 43.3382 40.7637C43.2268 40.8002 43.1132 40.8184 42.9975 40.8184C42.7319 40.8184 42.523 40.7434 42.3709 40.5934C42.2187 40.4434 42.1427 40.2378 42.1427 39.9764C42.1427 39.8114 42.1759 39.6647 42.2423 39.5361C42.3087 39.4076 42.4019 39.308 42.5219 39.2373C42.6419 39.1644 42.7779 39.128 42.93 39.128C43.1528 39.128 43.3285 39.2008 43.4571 39.3465C43.5878 39.4901 43.6531 39.6882 43.6531 39.941V40.0021ZM42.9397 39.4172C42.8326 39.4172 42.7447 39.4494 42.6762 39.5136C42.6097 39.5758 42.5669 39.6668 42.5476 39.7868H43.3028C43.29 39.6647 43.2525 39.5725 43.1903 39.5104C43.1304 39.4483 43.0468 39.4172 42.9397 39.4172ZM44.7163 40.8184C44.4228 40.8184 44.1893 40.7498 44.0158 40.6127L44.1283 40.3299C44.3018 40.4584 44.5 40.5227 44.7228 40.5227C44.8192 40.5227 44.8931 40.5066 44.9445 40.4745C44.9981 40.4424 45.0249 40.3974 45.0249 40.3395C45.0249 40.2903 45.0066 40.2517 44.9702 40.2238C44.9338 40.1939 44.8717 40.1681 44.7838 40.1467L44.5139 40.0857C44.2182 40.0214 44.0704 39.8703 44.0704 39.6325C44.0704 39.534 44.0983 39.4472 44.154 39.3722C44.2097 39.2951 44.2879 39.2351 44.3886 39.1923C44.4893 39.1494 44.606 39.128 44.7388 39.128C44.8545 39.128 44.9659 39.1462 45.0731 39.1826C45.1802 39.2169 45.2745 39.2672 45.3559 39.3337L45.237 39.6068C45.0741 39.4868 44.907 39.4269 44.7356 39.4269C44.6435 39.4269 44.5717 39.444 44.5203 39.4783C44.4689 39.5126 44.4432 39.5597 44.4432 39.6197C44.4432 39.6668 44.4582 39.7043 44.4882 39.7322C44.5203 39.76 44.5739 39.7836 44.6489 39.8029L44.9252 39.8639C45.0859 39.9003 45.2027 39.9571 45.2755 40.0342C45.3505 40.1092 45.388 40.2078 45.388 40.3299C45.388 40.4799 45.328 40.5988 45.208 40.6866C45.0881 40.7745 44.9242 40.8184 44.7163 40.8184ZM45.8603 39.1698H46.2588V40.7927H45.8603V39.1698ZM46.2813 38.4338V38.8291H45.8346V38.4338H46.2813ZM48.3951 39.1698V40.7412C48.3951 40.9941 48.3254 41.1858 48.1862 41.3165C48.0469 41.4472 47.8423 41.5125 47.5724 41.5125C47.3217 41.5125 47.101 41.46 46.9104 41.3551L46.9746 41.0498C47.1717 41.1526 47.3678 41.204 47.5627 41.204C47.852 41.204 47.9966 41.0605 47.9966 40.7734V40.452C47.9473 40.5399 47.8755 40.6116 47.7813 40.6673C47.687 40.7209 47.581 40.7477 47.4631 40.7477C47.3217 40.7477 47.1953 40.7145 47.0839 40.648C46.9746 40.5795 46.8889 40.4842 46.8268 40.362C46.7668 40.2378 46.7368 40.0964 46.7368 39.9378C46.7368 39.7793 46.7668 39.639 46.8268 39.5168C46.8889 39.3926 46.9746 39.2972 47.0839 39.2308C47.1953 39.1623 47.3217 39.128 47.4631 39.128C47.5831 39.128 47.6891 39.1537 47.7813 39.2051C47.8755 39.2544 47.9473 39.324 47.9966 39.414V39.1698H48.3951ZM47.5692 40.4327C47.702 40.4327 47.8059 40.3888 47.8809 40.301C47.958 40.2131 47.9966 40.0921 47.9966 39.9378C47.9966 39.7836 47.9591 39.6625 47.8841 39.5747C47.8091 39.4868 47.7041 39.4429 47.5692 39.4429C47.4363 39.4429 47.3314 39.4868 47.2542 39.5747C47.1792 39.6625 47.1418 39.7836 47.1418 39.9378C47.1418 40.0921 47.1792 40.2131 47.2542 40.301C47.3314 40.3888 47.4363 40.4327 47.5692 40.4327ZM49.8864 39.128C50.2741 39.128 50.468 39.3508 50.468 39.7964V40.7927H50.0663V39.8157C50.0663 39.6872 50.0417 39.594 49.9924 39.5361C49.9431 39.4761 49.8671 39.4461 49.7642 39.4461C49.6421 39.4461 49.5436 39.4858 49.4686 39.565C49.3936 39.6422 49.3561 39.745 49.3561 39.8736V40.7927H48.9576V39.6293C48.9576 39.4579 48.949 39.3047 48.9319 39.1698H49.3079L49.3368 39.4365C49.3925 39.338 49.4675 39.2619 49.5618 39.2083C49.6582 39.1548 49.7664 39.128 49.8864 39.128ZM52.8363 40.8216C52.6607 40.8216 52.4957 40.798 52.3414 40.7509C52.1893 40.7038 52.0597 40.6363 51.9526 40.5484L52.094 40.2463C52.2054 40.3299 52.3211 40.392 52.4411 40.4327C52.5632 40.4713 52.696 40.4906 52.8396 40.4906C52.9981 40.4906 53.1202 40.4627 53.2059 40.407C53.2938 40.3513 53.3377 40.2731 53.3377 40.1724C53.3377 40.0867 53.297 40.0214 53.2156 39.9764C53.1363 39.9293 53.0045 39.8853 52.8203 39.8446C52.5332 39.7825 52.3243 39.7022 52.1936 39.6036C52.0629 39.5051 51.9976 39.3615 51.9976 39.173C51.9976 39.038 52.034 38.918 52.1068 38.8131C52.1797 38.7081 52.2825 38.6256 52.4154 38.5656C52.5503 38.5056 52.7057 38.4756 52.8813 38.4756C53.042 38.4756 53.1941 38.5003 53.3377 38.5495C53.4834 38.5967 53.6023 38.6631 53.6944 38.7488L53.5562 39.0509C53.3527 38.888 53.1277 38.8066 52.8813 38.8066C52.7335 38.8066 52.6167 38.8377 52.531 38.8998C52.4454 38.9598 52.4025 39.0423 52.4025 39.1473C52.4025 39.2373 52.44 39.3058 52.515 39.3529C52.5921 39.4001 52.7228 39.444 52.907 39.4847C53.0977 39.5297 53.253 39.579 53.373 39.6325C53.493 39.684 53.5851 39.7514 53.6494 39.835C53.7137 39.9164 53.7458 40.0192 53.7458 40.1435C53.7458 40.2806 53.7094 40.4006 53.6365 40.5034C53.5637 40.6041 53.4587 40.6823 53.3216 40.738C53.1845 40.7937 53.0227 40.8216 52.8363 40.8216ZM54.7186 39.4719V40.1981C54.7186 40.3888 54.8076 40.4842 54.9854 40.4842C55.0347 40.4842 55.0882 40.4756 55.1461 40.4584V40.7766C55.0754 40.8023 54.9897 40.8152 54.889 40.8152C54.7047 40.8152 54.5633 40.7637 54.4648 40.6609C54.3662 40.5581 54.3169 40.4102 54.3169 40.2174V39.4719H54.0052V39.1698H54.3169V38.7745L54.7186 38.6395V39.1698H55.1493V39.4719H54.7186ZM57.0322 39.1698V40.7927H56.6401V40.542C56.5887 40.632 56.5201 40.7005 56.4344 40.7477C56.3487 40.7948 56.2502 40.8184 56.1388 40.8184C55.7424 40.8184 55.5442 40.5956 55.5442 40.1499V39.1698H55.9427V40.1531C55.9427 40.271 55.9663 40.3577 56.0134 40.4135C56.0627 40.4692 56.1377 40.497 56.2384 40.497C56.3562 40.497 56.4505 40.4584 56.5212 40.3813C56.5919 40.3042 56.6272 40.2014 56.6272 40.0728V39.1698H57.0322ZM59.149 38.4274V40.7927H58.7537V40.5324C58.7045 40.6223 58.6338 40.693 58.5416 40.7445C58.4495 40.7937 58.3445 40.8184 58.2267 40.8184C58.0874 40.8184 57.9632 40.783 57.8539 40.7123C57.7446 40.6416 57.6589 40.542 57.5968 40.4135C57.5368 40.2828 57.5068 40.1339 57.5068 39.9668C57.5068 39.7996 57.5368 39.6529 57.5968 39.5265C57.6568 39.4001 57.7414 39.3026 57.8507 39.234C57.96 39.1633 58.0853 39.128 58.2267 39.128C58.3424 39.128 58.4452 39.1526 58.5352 39.2019C58.6273 39.249 58.698 39.3165 58.7473 39.4044V38.4274H59.149ZM58.3327 40.5034C58.4656 40.5034 58.5684 40.4574 58.6413 40.3652C58.7162 40.2731 58.7537 40.1424 58.7537 39.9732C58.7537 39.8039 58.7173 39.6732 58.6445 39.5811C58.5716 39.489 58.4688 39.4429 58.336 39.4429C58.201 39.4429 58.096 39.489 58.021 39.5811C57.9482 39.6711 57.9118 39.7996 57.9118 39.9668C57.9118 40.136 57.9482 40.2678 58.021 40.362C58.096 40.4563 58.1999 40.5034 58.3327 40.5034ZM59.7151 39.1698H60.1136V40.7927H59.7151V39.1698ZM60.1361 38.4338V38.8291H59.6894V38.4338H60.1361ZM61.4175 40.8184C61.2525 40.8184 61.1068 40.7841 60.9804 40.7155C60.8562 40.647 60.7597 40.5495 60.6912 40.4231C60.6248 40.2945 60.5916 40.1446 60.5916 39.9732C60.5916 39.8018 60.6248 39.6529 60.6912 39.5265C60.7597 39.3979 60.8562 39.2994 60.9804 39.2308C61.1068 39.1623 61.2525 39.128 61.4175 39.128C61.5803 39.128 61.7238 39.1623 61.8481 39.2308C61.9724 39.2994 62.0677 39.3979 62.1341 39.5265C62.2027 39.6529 62.237 39.8018 62.237 39.9732C62.237 40.1446 62.2027 40.2945 62.1341 40.4231C62.0677 40.5495 61.9724 40.647 61.8481 40.7155C61.7238 40.7841 61.5803 40.8184 61.4175 40.8184ZM61.4143 40.5034C61.5514 40.5034 61.6553 40.4595 61.726 40.3717C61.7988 40.2817 61.8352 40.1489 61.8352 39.9732C61.8352 39.7996 61.7988 39.6679 61.726 39.5779C61.6531 39.4858 61.5503 39.4397 61.4175 39.4397C61.2825 39.4397 61.1786 39.4858 61.1058 39.5779C61.0329 39.6679 60.9965 39.7996 60.9965 39.9732C60.9965 40.1489 61.0318 40.2817 61.1025 40.3717C61.1754 40.4595 61.2793 40.5034 61.4143 40.5034Z" fill="#F6F9FF"/>
<path d="M0.0437622 33.4977L58.051 -0.156565L24.3319 33.4051L57.696 67.7598L0.0437622 33.4977Z" fill="#C0392B"/>
<path d="M20.7827 27.7857H22.13V35.222H20.7827V27.7857ZM25.9026 28.8928H23.4795V27.7857H29.6939V28.8928H27.2603V35.222H25.9026V28.8928ZM37.7 35.316C36.9689 35.316 36.3284 35.1594 35.7783 34.846C35.2352 34.5327 34.8174 34.0906 34.525 33.5196C34.2325 32.9417 34.0863 32.2663 34.0863 31.4934C34.0863 30.7275 34.2325 30.059 34.525 29.4881C34.8174 28.9102 35.2352 28.468 35.7783 28.1617C36.3284 27.8483 36.9689 27.6917 37.7 27.6917C38.2014 27.6917 38.6714 27.7717 39.11 27.9319C39.5557 28.0851 39.9247 28.3009 40.2171 28.5794L39.7785 29.5612C39.4443 29.2896 39.11 29.0947 38.7758 28.9763C38.4486 28.851 38.0969 28.7883 37.7209 28.7883C37.0038 28.7883 36.4467 29.0216 36.0498 29.4881C35.6599 29.9546 35.465 30.623 35.465 31.4934C35.465 32.3707 35.6599 33.0461 36.0498 33.5196C36.4398 33.9861 36.9968 34.2194 37.7209 34.2194C38.0969 34.2194 38.4486 34.1602 38.7758 34.0418C39.11 33.9165 39.4443 33.7181 39.7785 33.4465L40.2171 34.4283C39.9247 34.7068 39.5557 34.9261 39.11 35.0863C38.6714 35.2395 38.2014 35.316 37.7 35.316ZM44.09 35.3056C43.5538 35.3056 43.0803 35.1942 42.6695 34.9714C42.2657 34.7486 41.9524 34.4318 41.7295 34.0209C41.5137 33.6032 41.4058 33.1158 41.4058 32.5587C41.4058 32.0017 41.5137 31.5178 41.7295 31.107C41.9524 30.6892 42.2657 30.3689 42.6695 30.1461C43.0803 29.9233 43.5538 29.8119 44.09 29.8119C44.6191 29.8119 45.0857 29.9233 45.4895 30.1461C45.8934 30.3689 46.2032 30.6892 46.4191 31.107C46.6419 31.5178 46.7533 32.0017 46.7533 32.5587C46.7533 33.1158 46.6419 33.6032 46.4191 34.0209C46.2032 34.4318 45.8934 34.7486 45.4895 34.9714C45.0857 35.1942 44.6191 35.3056 44.09 35.3056ZM44.0795 34.2821C44.5251 34.2821 44.8628 34.1393 45.0926 33.8538C45.3294 33.5614 45.4477 33.1297 45.4477 32.5587C45.4477 31.9947 45.3294 31.5665 45.0926 31.2741C44.8559 30.9747 44.5217 30.825 44.09 30.825C43.6513 30.825 43.3136 30.9747 43.0769 31.2741C42.8401 31.5665 42.7218 31.9947 42.7218 32.5587C42.7218 33.1297 42.8366 33.5614 43.0664 33.8538C43.3032 34.1393 43.6409 34.2821 44.0795 34.2821ZM51.3153 29.8119C52.5756 29.8119 53.2058 30.536 53.2058 31.9843V35.222H51.9002V32.047C51.9002 31.6292 51.8202 31.3263 51.66 31.1383C51.4999 30.9433 51.2527 30.8459 50.9185 30.8459C50.5216 30.8459 50.2013 30.9747 49.9576 31.2323C49.7139 31.483 49.592 31.8172 49.592 32.235V35.222H48.2969V31.4412C48.2969 30.8842 48.2691 30.3863 48.2134 29.9476H49.4354L49.5294 30.8145C49.7104 30.4942 49.9541 30.247 50.2605 30.073C50.5738 29.8989 50.9254 29.8119 51.3153 29.8119ZM56.6685 30.9294V33.2898C56.6685 33.9095 56.9575 34.2194 57.5354 34.2194C57.6955 34.2194 57.8696 34.1915 58.0576 34.1358V35.1698C57.8278 35.2534 57.5493 35.2952 57.222 35.2952C56.6232 35.2952 56.1637 35.128 55.8434 34.7938C55.5231 34.4596 55.3629 33.9792 55.3629 33.3525V30.9294H54.3498V29.9476H55.3629V28.663L56.6685 28.2243V29.9476H58.068V30.9294H56.6685ZM63.9995 32.6527H60.3648C60.3927 33.2167 60.5319 33.6345 60.7826 33.9061C61.0402 34.1706 61.4197 34.3029 61.921 34.3029C62.499 34.3029 63.0351 34.1149 63.5295 33.7389L63.9055 34.6372C63.6548 34.8391 63.345 35.0027 62.9759 35.128C62.6138 35.2464 62.2448 35.3056 61.8688 35.3056C61.0054 35.3056 60.3265 35.0619 59.8322 34.5745C59.3378 34.0871 59.0906 33.4187 59.0906 32.5692C59.0906 32.033 59.1985 31.5561 59.4144 31.1383C59.6302 30.7205 59.9331 30.3967 60.323 30.167C60.713 29.9302 61.1551 29.8119 61.6495 29.8119C62.3736 29.8119 62.9446 30.0486 63.3624 30.5221C63.7871 30.9886 63.9995 31.6327 63.9995 32.4543V32.6527ZM61.6808 30.7519C61.3327 30.7519 61.0472 30.8563 60.8244 31.0652C60.6085 31.2671 60.4693 31.563 60.4066 31.953H62.861C62.8193 31.5561 62.6974 31.2567 62.4955 31.0547C62.3005 30.8528 62.029 30.7519 61.6808 30.7519ZM70.6204 35.222H69.0642L67.6437 33.4361L66.2233 35.222H64.6775L66.8917 32.5065L64.8133 29.9476H66.3591L67.6437 31.5874L68.9284 29.9476H70.4846L68.4062 32.5065L70.6204 35.222ZM73.3028 30.9294V33.2898C73.3028 33.9095 73.5917 34.2194 74.1697 34.2194C74.3298 34.2194 74.5039 34.1915 74.6919 34.1358V35.1698C74.4621 35.2534 74.1836 35.2952 73.8563 35.2952C73.2575 35.2952 72.798 35.128 72.4777 34.7938C72.1574 34.4596 71.9972 33.9792 71.9972 33.3525V30.9294H70.9841V29.9476H71.9972V28.663L73.3028 28.2243V29.9476H74.7023V30.9294H73.3028Z" fill="#F6F9FF"/>
</g>
</svg>
