<?xml version="1.0" encoding="UTF-8"?>
<!DOCTYPE svg PUBLIC "-//W3C//DTD SVG 1.0//EN" "http://www.w3.org/TR/2001/REC-SVG-20010904/DTD/svg10.dtd">
<!-- Creator: CorelDRAW X6 -->
<svg xmlns="http://www.w3.org/2000/svg" xml:space="preserve" width="38.0898mm" height="29.8015mm" version="1.0" style="shape-rendering:geometricPrecision; text-rendering:geometricPrecision; image-rendering:optimizeQuality; fill-rule:evenodd; clip-rule:evenodd"
viewBox="0 0 3809 2980"
 xmlns:xlink="http://www.w3.org/1999/xlink">
 <defs>
  <style type="text/css">
   <![CDATA[
    .fil0 {fill:#8c271e}
    .fil1 {fill:#fbfbfb}
    .fil2 {fill:#fbfbfb;fill-rule:nonzero}
   ]]>
  </style>
 </defs>
 <g id="Warstwa_x0020_1">
  <metadata id="CorelCorpID_0Corel-Layer"/>
  <path class="fil0" d="M1781 784l-10 29c-2,4 -3,5 -4,10 4,0 5,0 9,0 36,-3 72,-5 107,-6 7,0 13,0 20,0 37,0 67,1 103,6l44 7c6,2 16,4 23,5 27,4 90,29 111,39 28,13 49,26 73,41 20,12 32,22 48,34l44 36c6,6 22,22 28,26l16 -34c-5,-3 -22,-21 -28,-26 -33,-29 -52,-47 -91,-72 -144,-94 -293,-116 -458,-98 -8,1 -31,5 -38,5l3 -2zm626 169c4,-2 33,-47 46,-59 84,-78 166,-53 266,-24 1,-5 -2,-16 -3,-21 -4,-17 -8,-35 -12,-52 -1,-4 -3,-7 -2,-11l-62 -6c-22,-3 -42,-6 -64,-9l-66 -13c-10,-1 -40,13 -52,13 -3,-16 40,-19 61,-37 38,-31 40,-31 78,-57 9,-6 45,-24 48,-28l-72 -111c-14,-18 -37,-47 -52,-63 -4,12 -18,37 -24,49l-74 147c-33,68 -65,141 -87,216 1,6 65,53 73,66l-2 0zm-577 -817c121,-43 222,-59 352,-49 144,11 287,54 425,106 -5,10 -17,25 -24,36 -22,34 -47,76 -67,111 -79,143 -180,360 -228,516l33 23c7,-20 12,-41 19,-61 7,-19 14,-37 21,-55 14,-35 31,-70 48,-103 25,-49 52,-98 76,-147l21 -44c2,-4 0,-5 4,-4 -1,-5 16,-30 19,-36 26,-48 59,-102 86,-150 4,-7 7,-12 11,-18l53 -94c-9,-3 -21,-5 -29,-6 -104,-28 -229,-66 -334,-88 -11,-2 -20,-5 -30,-7 -70,-12 -122,-21 -193,-20 -68,8 -121,11 -185,43l-59 34c-4,3 -16,11 -19,14l0 -1zm-2 32c1,11 0,24 1,35 2,95 4,190 0,284 0,12 -2,24 -2,36 0,11 -2,25 -3,37l-9 76c-5,35 -16,87 -26,121 148,-17 291,-15 427,54 8,4 51,28 53,29 73,-204 165,-416 281,-598 6,-10 18,-25 22,-35 -226,-85 -471,-136 -706,-53 -7,3 -34,13 -38,13l0 1z"/>
  <path class="fil1" d="M2442 979l-43 91 -40 -22c35,42 56,78 62,81 8,-13 246,-201 268,-208l458 457c15,-13 140,-183 147,-202 16,8 11,3 25,21l490 656c-28,-14 -47,-32 -71,-49l-448 -337 -77 99c-19,26 -57,82 -77,99 -24,-19 -44,-40 -69,-61 -91,-76 -275,-241 -344,-293 -35,-26 -100,-96 -138,-115l-224 129 -122 -92c-48,-34 -327,-255 -359,-269 -22,21 -54,44 -78,65l-548 445c-17,-9 -70,-71 -84,-89 -14,-19 -65,-75 -85,-86l-304 269c-36,32 -65,59 -100,86 -20,-13 -27,-31 -46,-49 -19,-18 -28,-34 -44,-51 -29,11 -201,128 -242,155 -41,26 -78,51 -122,79 -34,22 -84,59 -118,74 42,-44 72,-83 122,-127l245 -260c29,-26 40,-37 63,-63 20,-22 36,-47 61,-62 23,12 41,41 71,70 24,24 44,50 73,67 19,-11 14,-13 29,-31l281 -322c24,-25 28,-33 52,-57 20,-20 28,-36 51,-56l158 213c23,-10 103,-82 126,-103l197 -175c22,-22 56,-45 81,-69l25 -22 -33 -2 15 -52c19,-64 36,-109 46,-179 6,-49 12,-97 14,-146 4,-93 2,-188 0,-282 0,-14 -44,8 -58,13 22,-36 49,-77 66,-105 7,-12 20,-19 31,-27 96,-65 205,-89 319,-84 96,4 214,34 306,61 68,20 141,37 210,55 29,5 56,14 84,22l-80 141c-32,56 -66,111 -96,168 -10,19 26,48 38,63l90 138 2 -1c7,-3 14,-7 21,-9 4,-2 8,-3 12,-5l80 -28c68,-21 136,-36 206,-50l50 -10c4,-1 8,-1 13,-2l115 -19 0 0c4,-1 8,-1 12,-2l51 -8c39,-5 77,-12 116,-17l0 0c-27,27 -56,52 -85,76l-39 30c-3,2 -6,5 -9,7l-72 47c-4,2 -7,5 -11,7 -16,10 -36,18 -53,27 -16,8 -33,15 -49,21l-114 34c-32,6 -63,11 -95,14 -33,3 -65,4 -98,3l-4 19c5,21 20,72 16,92l-9 46 -45 -13c-44,-13 -98,-30 -144,-25 -18,2 -34,7 -50,15 -12,7 -21,15 -31,25 -12,11 -23,28 -32,41 -1,2 -3,5 -4,7l-1 2 -2 2 -1 4zm199 -220l63 6 0 0c2,0 4,1 7,1l16 2 -4 20c0,1 1,2 1,3l0 1c3,14 19,68 16,83l-5 23 -22 -7c-67,-20 -144,-45 -211,-9 -14,8 -23,17 -35,28 -13,12 -26,31 -36,46 -1,2 -2,4 -3,6l-1 1 -3 4 -34 73 -20 -11c-11,-6 -22,-19 -32,-28l-43 -35c-16,-11 -29,-23 -46,-32 -24,-14 -46,-28 -72,-40 -18,-8 -36,-15 -55,-22 -15,-5 -35,-13 -51,-15 -8,-1 -16,-3 -24,-5l-43 -7c-34,-4 -66,-5 -100,-5 -6,0 -13,0 -19,0 -35,1 -71,3 -106,6 -4,0 -8,1 -12,1l-27 -2 8 -26c13,-43 26,-76 36,-122 4,-20 8,-40 11,-60 6,-50 12,-98 14,-148 4,-94 2,-189 0,-283 0,-11 0,-23 -1,-34l-28 7 33 -53c5,-8 17,-16 25,-21 110,-64 179,-85 306,-80 94,4 210,33 300,60 69,20 142,37 211,55 20,4 37,9 57,14l-67 118c-32,56 -66,112 -96,168 -3,6 -7,12 -11,18 -1,1 -2,3 -2,4 19,21 37,43 54,65l81 125 -11 12c-1,2 -3,3 -5,5l0 0 0 0 0 0 0 0 0 0 0 0 0 0 0 0 0 0 0 0 0 0 0 0 0 0 0 0 0 0 0 0 0 0 0 0 0 0 0 0 0 0 0 0 0 0 0 0 0 0 0 0 0 0 0 0 0 0 0 0 0 0 0 0 0 0 0 0 0 0 0 0 0 0 -1 1 0 0 0 0 0 0 0 0 0 0 0 0 0 0 0 0 0 0 0 0 0 0 0 0 0 0 0 0 0 0 0 0 0 0 0 0 0 0 0 0 0 0 0 0 0 0 0 0 0 0 0 0 0 0 0 0 0 0 0 0 0 0 0 0 0 0 0 0 0 0 0 0 0 0 0 0 0 0 0 0 0 0 0 0 0 0 0 0 0 0 0 0 0 0 0 0 0 0 0 0 0 0 0 0 0 0 0 0 0 0 0 0 0 0 0 0 0 0 0 0 0 0 0 0 0 0 0 0 0 0 0 0 0 0 0 0 0 0 0 0 0 0 0 0c-7,4 -15,8 -21,12 -13,9 -26,17 -38,26 -10,7 -19,14 -28,21l37 7c21,4 42,7 63,9l-26 14z"/>
  <path class="fil1" d="M404 2246c-25,-23 -38,-56 -38,-101 0,-22 4,-47 11,-74l77 -285c-43,11 -77,30 -101,57 -24,27 -36,58 -36,90 0,23 7,45 20,67 -29,0 -51,-7 -66,-20 -16,-13 -24,-32 -24,-56 0,-30 13,-60 39,-88 26,-28 61,-50 105,-67 44,-17 90,-25 138,-25 17,0 31,1 42,4l-92 325c-9,30 -13,55 -13,76 0,45 20,67 59,67 56,0 95,-48 116,-145l75 -325 106 0 -73 325c-16,69 -44,121 -83,156 -39,35 -89,53 -150,53 -50,0 -87,-11 -112,-34zm483 26c12,-20 28,-36 49,-47 21,-11 43,-17 68,-17 25,0 46,6 61,18 16,12 23,27 23,47 0,15 -4,27 -11,35 -6,-7 -14,-13 -24,-18 -10,-4 -21,-7 -32,-7 -20,0 -36,6 -49,19 -13,12 -19,29 -19,48 0,20 6,36 18,48 12,12 28,19 46,19 23,0 43,-10 60,-29 17,-19 29,-48 38,-86l50 -206 -4 0c-18,24 -40,42 -65,54 -26,12 -54,19 -84,19 -38,0 -72,-10 -101,-29 -29,-19 -52,-47 -67,-82 -16,-36 -23,-77 -23,-124 0,-68 16,-130 48,-186 32,-56 76,-100 131,-133 56,-32 117,-48 184,-48 56,0 101,11 134,34 33,23 49,54 49,94 0,27 -7,48 -21,64 -14,16 -32,24 -55,24 -13,0 -24,-2 -35,-7 -11,-5 -20,-12 -27,-21 12,-7 22,-19 30,-36 8,-16 12,-33 12,-50 0,-19 -6,-33 -17,-43 -12,-10 -28,-15 -49,-15 -38,0 -76,16 -111,48 -36,32 -65,74 -86,125 -22,51 -33,105 -33,162 0,46 8,82 24,106 16,25 39,37 69,37 36,0 67,-18 95,-53 27,-35 50,-87 66,-154l117 1 -73 313c-21,92 -51,160 -90,204 -39,43 -89,65 -151,65 -104,3 -196,-77 -143,-192l-2 -1zm992 -466l143 0 -13 58c23,-19 43,-33 61,-43 18,-10 38,-15 59,-15 21,0 38,7 50,20 12,14 18,30 18,49 0,18 -6,34 -19,47 -13,14 -30,20 -53,20 -15,0 -24,-3 -29,-10 -5,-7 -9,-16 -11,-28 -2,-8 -4,-14 -6,-18 -2,-4 -6,-6 -11,-6 -14,0 -26,3 -35,8 -10,5 -22,14 -37,27l-80 353 -143 0 67 -298c-26,10 -54,17 -83,21 -5,56 -19,106 -41,148 -22,42 -50,75 -84,98 -34,23 -72,34 -112,34 -49,0 -88,-12 -116,-35 -28,-24 -43,-61 -43,-112 0,-42 9,-89 28,-140 19,-51 48,-96 89,-133 41,-38 93,-56 155,-56 85,0 127,50 127,149l0 1c2,1 6,1 11,1 22,0 47,-5 76,-16l4 -1 28 -125 0 2zm-271 359c39,-42 59,-113 68,-168 -18,-4 -27,-17 -27,-39 0,-25 10,-42 31,-50 -1,-20 -5,-35 -10,-42 -5,-8 -15,-12 -28,-12 -22,0 -43,15 -64,45 -21,30 -37,65 -50,107 -13,42 -19,78 -19,110 0,30 4,50 11,60 7,10 21,15 40,15 16,0 32,-9 48,-26zm1632 -61l48 -210c0,-62 -83,-33 -112,8 -40,55 -68,144 -68,212 0,117 111,81 132,-9l0 -1zm-821 60c16,-15 27,-35 33,-60l48 -210c0,-8 -3,-16 -10,-24 -59,-69 -139,90 -152,136 -12,41 -18,76 -18,107 0,71 46,98 99,51zm285 33c-14,19 -28,33 -44,44 -36,24 -72,36 -109,36 -28,0 -50,-7 -67,-22 -17,-15 -27,-36 -30,-64 -19,25 -41,46 -64,62 -24,16 -52,24 -84,24 -38,0 -69,-12 -94,-36 -25,-24 -38,-62 -38,-113 0,-46 10,-94 29,-145 20,-51 49,-93 87,-128 39,-35 85,-53 139,-53 27,0 47,4 61,13 17,11 20,22 20,41l11 -49 143 0 -72 316c-21,73 45,93 85,46 14,-16 24,-37 32,-63l0 0 0 0 106 -466 147 -19 -114 502c-3,9 -4,19 -4,30 0,12 3,21 9,27 6,5 17,8 31,8 19,0 37,-8 54,-23 9,-8 17,-18 23,-29 0,-3 0,-5 0,-8 0,-46 10,-94 29,-145 20,-51 49,-93 87,-128 39,-35 85,-53 139,-53 27,0 47,4 61,13 17,11 20,22 20,41l11 -49 143 0 -72 316c-10,36 -6,64 37,64 9,0 17,-1 22,-4 -15,35 -29,59 -42,73 -30,31 -93,26 -124,-2 -17,-15 -27,-36 -31,-64 -40,58 -90,87 -148,87 -38,0 -69,-12 -94,-36 -13,-12 -22,-28 -28,-47 -15,20 -31,36 -49,47 -38,24 -77,36 -114,36 -53,0 -93,-27 -104,-80z"/>
  <g id="_213909616">
   <path class="fil2" d="M163 2609c34,0 61,6 79,18 18,12 27,30 27,52 0,11 -1,21 -4,29 -3,8 -6,15 -11,20 -5,6 -10,10 -17,14 -6,4 -13,7 -21,9 5,1 10,5 16,11 5,6 11,14 16,22 5,9 11,19 16,30 6,11 11,22 17,33 6,11 11,22 17,32 6,10 12,20 17,28 6,8 12,15 17,20 6,5 12,7 18,7 3,0 5,-1 7,-1 2,-1 4,-2 6,-3l4 7c-3,1 -6,3 -9,5 -4,2 -8,3 -13,5 -5,1 -10,3 -17,4 -6,1 -13,2 -20,2 -12,0 -23,-3 -33,-10 -10,-7 -18,-16 -25,-29 -7,-13 -14,-26 -21,-40 -7,-14 -14,-28 -21,-42 -7,-14 -14,-28 -21,-41 -7,-13 -14,-26 -21,-37l1 -8c7,2 14,1 19,-1 5,-3 10,-7 14,-14 4,-6 6,-14 8,-23 2,-9 3,-19 3,-30 0,-8 -1,-15 -2,-21 -2,-7 -4,-12 -7,-17 -3,-5 -7,-9 -11,-12 -4,-3 -9,-4 -14,-4 -4,0 -7,1 -10,2 -3,1 -5,3 -6,5 -2,2 -3,4 -3,6 -1,2 -1,4 -1,6l0 225c0,10 -3,17 -8,21 -5,4 -13,7 -23,7 -11,0 -18,-2 -24,-7 -5,-4 -8,-11 -8,-21l0 -227c0,-7 -5,-10 -14,-10 -7,0 -14,1 -21,3 -7,2 -14,5 -19,9 -6,4 -10,8 -14,13 -4,5 -6,10 -6,16 0,4 1,7 2,10 1,2 2,4 4,5 1,1 3,2 4,2 1,0 2,0 3,0 3,0 6,-1 8,-2 2,-1 4,-2 6,-3 2,-1 3,-2 5,-3 1,-1 3,-2 5,-2 1,0 3,0 5,1 2,1 3,2 5,3 1,1 3,4 4,6 1,2 1,5 1,9 0,5 -1,9 -3,13 -2,4 -4,7 -8,9 -3,2 -7,4 -11,6 -4,1 -8,2 -12,2 -6,0 -12,-1 -16,-3 -5,-2 -9,-5 -12,-9 -3,-4 -6,-8 -8,-13 -2,-5 -3,-10 -3,-16 0,-10 2,-20 6,-28 4,-8 9,-15 17,-21 7,-6 16,-11 26,-14 10,-4 21,-7 33,-9 12,-2 25,-4 39,-5 14,-1 28,-1 43,-1zm212 196c0,4 1,8 2,13 1,5 3,10 5,14 2,5 5,9 8,14 3,4 7,8 12,12 4,3 9,6 15,8 5,2 11,3 17,3 4,0 9,-1 12,-2 4,-1 7,-2 11,-4 3,-2 6,-4 9,-6 3,-2 6,-5 9,-7l5 5c-3,4 -7,8 -11,13 -5,5 -10,9 -17,13 -6,4 -14,8 -23,10 -9,3 -18,4 -29,4 -11,0 -22,-2 -32,-6 -10,-4 -20,-10 -28,-18 -8,-8 -15,-18 -19,-30 -5,-12 -7,-26 -7,-42 0,-11 1,-22 4,-32 3,-10 7,-18 12,-26 5,-8 11,-15 17,-20 7,-6 14,-11 21,-15 7,-4 15,-7 23,-9 8,-2 15,-3 22,-3 9,0 17,1 24,3 7,2 13,5 17,8 5,3 8,7 10,12 2,4 3,9 3,14 0,6 -2,11 -5,16 -3,5 -8,9 -14,12l-75 44zm38 -39c2,-1 3,-2 4,-3 1,-1 2,-2 3,-3 1,-1 1,-3 1,-5 0,-2 1,-4 1,-7 0,-3 0,-7 -1,-10 -1,-4 -2,-8 -4,-11 -2,-3 -4,-6 -6,-8 -3,-2 -6,-3 -9,-3 -5,0 -8,1 -12,4 -3,3 -6,6 -8,10 -2,4 -4,9 -5,15 -1,6 -2,11 -3,17 -1,6 -1,11 -1,16 0,5 0,9 0,13l40 -23zm154 -56c-3,0 -6,0 -8,1 -3,1 -5,2 -7,4 -2,2 -4,4 -5,6 -1,3 -2,6 -2,9 0,5 2,10 5,15 4,5 8,10 13,15 5,5 11,11 17,16 6,6 12,12 17,18 5,6 10,13 13,20 4,7 5,15 5,23 0,9 -2,17 -5,24 -3,7 -8,13 -13,18 -6,5 -13,9 -21,11 -8,3 -17,4 -27,4 -9,0 -17,-1 -24,-4 -7,-2 -13,-6 -19,-9 -6,-4 -10,-7 -14,-11 -4,-4 -7,-8 -9,-11l7 -5c2,2 4,4 6,6 3,2 5,4 8,6 3,2 6,3 10,5 4,1 7,2 11,2 9,0 17,-2 22,-7 6,-4 9,-11 9,-19 0,-5 -2,-10 -5,-15 -3,-5 -7,-10 -12,-16 -5,-5 -10,-11 -16,-17 -6,-6 -11,-12 -16,-18 -5,-6 -9,-13 -12,-19 -3,-7 -5,-13 -5,-21 0,-8 2,-15 5,-21 3,-6 8,-11 13,-15 5,-4 12,-7 18,-9 7,-2 14,-3 21,-3 8,0 16,1 23,2 7,2 13,4 18,7 5,3 9,7 12,12 3,5 4,10 4,16 0,5 -2,9 -5,13 -3,4 -8,5 -13,5 -5,0 -10,-1 -12,-4 -3,-2 -4,-6 -4,-10 0,-3 1,-5 2,-6 1,-2 3,-3 4,-4 2,-1 3,-2 4,-2 1,-1 2,-2 2,-3 0,-4 -2,-6 -6,-8 -4,-2 -9,-3 -15,-3zm144 1l0 140c0,7 1,11 4,14 3,3 6,4 10,4 3,0 6,-1 9,-3 3,-2 5,-4 7,-6 2,-3 4,-6 6,-9l6 3c-2,4 -4,8 -7,13 -3,5 -6,9 -10,13 -4,4 -10,8 -16,10 -7,3 -15,4 -25,4 -6,0 -11,-1 -16,-2 -5,-2 -10,-4 -14,-8 -4,-4 -7,-8 -10,-13 -2,-5 -4,-12 -4,-19l0 -140 -21 0 0 -14c4,0 8,-1 15,-3 6,-2 13,-5 19,-9 7,-4 13,-10 19,-17 6,-7 10,-16 12,-27l15 0 0 56 31 0c10,0 15,-2 15,-5 0,-1 -1,-2 -2,-3 -1,0 -3,-1 -4,-2 -2,-1 -3,-2 -4,-3 -1,-1 -2,-3 -2,-6 0,-4 1,-6 3,-8 2,-2 5,-3 9,-3 2,0 4,0 6,1 2,1 3,2 4,4 1,2 2,3 3,5 1,2 1,4 1,6 0,8 -2,15 -7,20 -5,5 -12,7 -23,7l-29 0zm155 82c0,-3 -1,-6 -3,-7 -2,-2 -5,-2 -8,-2 -4,0 -9,1 -13,3 -4,2 -8,5 -11,9 -3,4 -5,9 -7,14 -2,6 -3,12 -3,20 0,7 1,13 2,18 1,5 3,9 4,11 2,3 4,5 6,6 2,1 5,2 8,2 3,0 6,-1 9,-3 3,-2 5,-4 8,-7 2,-3 4,-6 5,-9 1,-3 2,-7 2,-10l0 -46zm-30 -83c-4,0 -8,1 -12,2 -4,1 -7,2 -9,4 -3,2 -5,3 -6,5 -1,2 -2,4 -2,5 0,2 1,3 3,4 2,1 4,2 7,3 2,1 5,3 7,5 2,2 3,5 3,9 0,3 -1,5 -2,7 -1,2 -3,4 -4,6 -2,2 -4,3 -6,4 -2,1 -5,1 -8,1 -7,0 -13,-2 -17,-7 -4,-5 -7,-11 -7,-19 0,-8 2,-14 6,-20 4,-6 9,-10 16,-14 7,-4 14,-6 22,-8 8,-2 16,-3 25,-3 10,0 19,1 28,3 9,2 17,6 24,10 7,5 12,11 17,18 4,7 6,16 6,26l0 107c0,1 0,2 0,4 0,1 0,3 1,4 1,1 1,2 2,3 1,1 2,1 4,1 2,0 4,-1 6,-3 2,-2 4,-3 5,-5l5 4c-2,3 -4,6 -7,9 -3,3 -6,6 -10,9 -4,3 -8,5 -13,7 -5,2 -11,3 -17,3 -8,0 -15,-2 -21,-7 -6,-5 -10,-12 -12,-22 -4,5 -8,10 -13,14 -4,4 -9,7 -13,9 -5,2 -9,4 -14,5 -5,1 -9,2 -14,2 -6,0 -12,-1 -18,-3 -6,-2 -11,-5 -15,-9 -4,-4 -8,-9 -11,-16 -3,-7 -4,-15 -4,-24 0,-12 2,-21 7,-28 5,-7 11,-14 18,-19 7,-5 16,-9 25,-13 9,-4 19,-7 29,-11 7,-3 13,-7 16,-13 3,-6 5,-12 5,-18 0,-9 -3,-17 -8,-22 -6,-6 -13,-8 -22,-8zm304 148c0,1 0,2 0,4 0,1 0,3 1,4 1,1 1,2 2,3 1,1 3,1 4,1 2,0 5,-1 6,-3 2,-2 4,-3 5,-5l5 4c-2,3 -4,6 -7,9 -3,3 -6,6 -10,9 -4,3 -9,5 -14,7 -5,2 -11,3 -18,3 -6,0 -10,-1 -15,-2 -4,-1 -8,-3 -10,-6 -3,-2 -5,-5 -6,-9 -1,-3 -2,-7 -2,-11l0 -9c-6,7 -13,13 -20,18 -3,2 -6,4 -10,7 -3,2 -7,4 -11,6 -4,2 -7,3 -11,4 -4,1 -8,2 -12,2 -8,0 -14,-1 -19,-4 -5,-3 -10,-6 -13,-11 -3,-4 -6,-9 -7,-15 -2,-6 -2,-11 -2,-17l0 -117c0,-1 0,-2 0,-4 0,-1 0,-3 -1,-4 -1,-1 -1,-2 -2,-3 -1,-1 -2,-1 -4,-1 -2,0 -4,1 -6,3 -2,2 -4,4 -5,5l-5 -4c2,-3 4,-6 7,-9 3,-3 6,-6 10,-9 4,-3 9,-5 14,-7 5,-2 11,-3 18,-3 6,0 10,1 15,2 4,1 8,3 10,6 3,3 5,5 6,9 1,3 2,7 2,11l0 127c0,2 0,4 1,5 1,2 1,3 2,5 1,1 2,3 4,4 2,1 4,1 6,1 4,0 7,-1 11,-3 4,-2 7,-4 10,-7 3,-3 6,-5 8,-8 2,-3 4,-4 5,-6l0 -111c0,-1 0,-2 0,-4 0,-1 0,-3 -1,-4 -1,-1 -1,-2 -2,-3 -1,-1 -2,-1 -4,-1 -2,0 -4,1 -6,3 -2,2 -4,4 -5,5l-5 -4c2,-3 4,-6 7,-9 3,-3 6,-6 10,-9 4,-3 9,-5 14,-7 5,-2 11,-3 18,-3 6,0 10,1 15,2 4,1 8,3 10,6 3,3 5,5 6,9 1,3 2,7 2,11l0 136zm110 -124c5,-7 10,-14 15,-20 2,-3 5,-5 7,-7 3,-2 5,-5 8,-6 3,-2 6,-3 9,-5 3,-1 6,-2 9,-2 6,0 11,2 15,6 4,4 6,9 6,16 0,4 0,8 -1,12 -1,4 -2,9 -4,15l-5 0c-1,-4 -3,-7 -5,-10 -3,-3 -7,-4 -12,-4 -4,0 -8,1 -12,2 -4,1 -8,3 -11,5 -4,2 -7,4 -10,7 -3,3 -6,5 -9,7l0 123c0,2 0,4 -1,6 -1,2 -2,4 -4,6 -2,2 -5,4 -9,5 -4,1 -9,2 -16,2 -7,0 -12,-1 -16,-2 -4,-2 -7,-3 -9,-6 -2,-2 -3,-4 -4,-7 -1,-2 -1,-4 -1,-6l0 -146c0,-4 -1,-7 -3,-10 -2,-3 -5,-4 -9,-4 -2,0 -4,0 -6,1 -2,1 -3,2 -5,3l-4 -5c3,-2 6,-5 10,-7 4,-2 8,-4 12,-6 4,-2 9,-3 13,-4 5,-1 10,-2 15,-2 5,0 10,1 14,2 4,1 7,3 9,6 2,2 4,5 6,8 1,3 2,6 3,9 1,3 1,6 1,9 0,3 0,5 0,7zm175 59c0,-3 -1,-6 -3,-7 -2,-2 -5,-2 -8,-2 -4,0 -9,1 -13,3 -4,2 -8,5 -11,9 -3,4 -5,9 -7,14 -2,6 -3,12 -3,20 0,7 1,13 2,18 1,5 3,9 4,11 2,3 4,5 6,6 2,1 5,2 8,2 3,0 6,-1 9,-3 3,-2 5,-4 8,-7 2,-3 4,-6 5,-9 1,-3 2,-7 2,-10l0 -46zm-30 -83c-4,0 -8,1 -12,2 -4,1 -7,2 -9,4 -3,2 -5,3 -6,5 -1,2 -2,4 -2,5 0,2 1,3 3,4 2,1 4,2 7,3 2,1 5,3 7,5 2,2 3,5 3,9 0,3 -1,5 -2,7 -1,2 -3,4 -4,6 -2,2 -4,3 -6,4 -2,1 -5,1 -8,1 -7,0 -13,-2 -17,-7 -4,-5 -7,-11 -7,-19 0,-8 2,-14 6,-20 4,-6 9,-10 16,-14 7,-4 14,-6 22,-8 8,-2 16,-3 25,-3 10,0 19,1 28,3 9,2 17,6 24,10 7,5 12,11 17,18 4,7 6,16 6,26l0 107c0,1 0,2 0,4 0,1 0,3 1,4 1,1 1,2 2,3 1,1 2,1 4,1 2,0 4,-1 6,-3 2,-2 4,-3 5,-5l5 4c-2,3 -4,6 -7,9 -3,3 -6,6 -10,9 -4,3 -8,5 -13,7 -5,2 -11,3 -17,3 -8,0 -15,-2 -21,-7 -6,-5 -10,-12 -12,-22 -4,5 -8,10 -13,14 -4,4 -9,7 -13,9 -5,2 -9,4 -14,5 -5,1 -9,2 -14,2 -6,0 -12,-1 -18,-3 -6,-2 -11,-5 -15,-9 -4,-4 -8,-9 -11,-16 -3,-7 -4,-15 -4,-24 0,-12 2,-21 7,-28 5,-7 11,-14 18,-19 7,-5 16,-9 25,-13 9,-4 19,-7 29,-11 7,-3 13,-7 16,-13 3,-6 5,-12 5,-18 0,-9 -3,-17 -8,-22 -6,-6 -13,-8 -22,-8zm250 87c0,-16 -1,-29 -2,-38 -1,-10 -3,-17 -6,-22 -2,-5 -5,-8 -8,-10 -3,-2 -6,-2 -9,-2 -4,0 -7,1 -10,3 -3,2 -5,4 -7,7 -2,3 -4,5 -5,8 -1,3 -3,4 -4,6l0 127c0,2 0,4 -1,6 -1,2 -2,5 -4,7 -2,2 -5,4 -9,5 -4,1 -9,2 -16,2 -7,0 -12,-1 -16,-2 -4,-2 -7,-3 -9,-6 -2,-2 -3,-4 -4,-7 -1,-2 -1,-4 -1,-6l0 -146c0,-4 -1,-7 -3,-10 -2,-3 -5,-4 -9,-4 -2,0 -4,0 -6,1 -2,1 -3,2 -5,3l-4 -5c3,-2 6,-5 10,-7 4,-2 8,-4 12,-6 4,-2 9,-3 13,-4 5,-1 10,-2 15,-2 8,0 15,1 19,4 5,3 8,6 10,10 2,4 4,8 4,12 0,4 1,8 1,10 5,-7 10,-13 16,-18 2,-2 5,-4 8,-7 3,-2 6,-4 10,-6 3,-2 7,-3 11,-4 4,-1 8,-1 11,-1 9,0 16,2 23,5 7,3 12,9 17,17 5,8 8,18 10,31 2,13 4,28 4,47 0,18 -2,34 -5,48 -3,14 -8,25 -13,35 -5,9 -11,17 -18,23 -7,6 -13,11 -20,14 -7,3 -13,6 -20,7 -6,1 -12,2 -16,2l-2 -8c4,-1 7,-2 11,-4 3,-2 6,-5 9,-8 3,-4 5,-8 7,-14 2,-6 4,-13 5,-21 1,-8 3,-19 3,-30 1,-12 1,-25 1,-41zm159 -86l0 140c0,7 1,11 4,14 3,3 6,4 10,4 3,0 6,-1 9,-3 3,-2 5,-4 7,-6 2,-3 4,-6 6,-9l6 3c-2,4 -4,8 -7,13 -3,5 -6,9 -10,13 -4,4 -10,8 -16,10 -7,3 -15,4 -25,4 -6,0 -11,-1 -16,-2 -5,-2 -10,-4 -14,-8 -4,-4 -7,-8 -10,-13 -2,-5 -4,-12 -4,-19l0 -140 -21 0 0 -14c4,0 8,-1 15,-3 6,-2 13,-5 19,-9 7,-4 13,-10 19,-17 6,-7 10,-16 12,-27l15 0 0 56 31 0c10,0 15,-2 15,-5 0,-1 -1,-2 -2,-3 -1,0 -3,-1 -4,-2 -2,-1 -3,-2 -4,-3 -1,-1 -2,-3 -2,-6 0,-4 1,-6 3,-8 2,-2 5,-3 9,-3 2,0 4,0 6,1 2,1 3,2 4,4 1,2 2,3 3,5 1,2 1,4 1,6 0,8 -2,15 -7,20 -5,5 -12,7 -23,7l-29 0zm152 59l97 0 0 46 -97 0 0 -46z"/>
   <path class="fil2" d="M2252 2642c0,-4 -1,-7 -4,-9 -3,-2 -6,-3 -10,-3 -7,0 -14,1 -21,3 -7,2 -13,5 -18,9 -5,4 -10,8 -13,13 -3,5 -5,10 -5,16 0,4 1,7 2,10 1,2 2,4 4,5 1,1 3,2 4,2 1,0 2,0 3,0 3,0 6,-1 8,-2 2,-1 4,-2 6,-3 2,-1 3,-2 5,-3 1,-1 3,-2 5,-2 1,0 3,0 5,1 2,1 3,2 5,3 1,1 3,4 4,6 1,2 1,5 1,9 0,5 -1,9 -3,13 -2,4 -4,7 -8,9 -3,2 -7,4 -11,6 -4,1 -8,2 -12,2 -6,0 -12,-1 -16,-3 -5,-2 -9,-5 -12,-9 -3,-4 -6,-8 -8,-13 -2,-5 -3,-10 -3,-16 0,-16 4,-29 12,-39 8,-10 19,-18 32,-24 14,-6 30,-10 48,-12 18,-2 38,-3 58,-3 23,0 45,2 64,7 19,5 35,12 49,23 14,11 24,24 31,42 7,17 11,38 11,63 0,25 -4,47 -12,66 -8,19 -18,35 -32,48 -13,13 -29,23 -47,30 -18,7 -38,10 -58,10 -14,0 -25,-1 -33,-2 -8,-1 -15,-4 -19,-7 -5,-3 -8,-8 -9,-13 -1,-5 -2,-12 -2,-20l0 -212zm63 214c0,7 2,12 5,15 3,3 8,5 14,5 9,0 18,-2 26,-6 8,-4 15,-11 21,-21 6,-10 10,-24 14,-41 3,-17 5,-38 5,-64 0,-17 -1,-32 -3,-45 -2,-13 -5,-23 -8,-32 -3,-9 -7,-16 -12,-21 -4,-6 -9,-10 -13,-13 -5,-3 -9,-5 -13,-6 -4,-1 -8,-2 -12,-2 -8,0 -14,2 -18,6 -4,4 -6,10 -6,20l0 206zm250 19c0,2 0,4 -1,6 -1,2 -2,5 -4,7 -2,2 -5,4 -9,5 -4,1 -9,2 -16,2 -7,0 -12,-1 -16,-2 -4,-2 -7,-3 -9,-6 -2,-2 -3,-4 -3,-7 0,-2 -1,-4 -1,-6l0 -146c0,-4 -1,-7 -3,-10 -2,-3 -5,-4 -9,-4 -2,0 -4,0 -6,1 -2,1 -3,2 -5,3l-4 -5c3,-2 6,-5 10,-7 4,-2 8,-4 12,-6 4,-2 9,-3 13,-4 5,-1 10,-2 15,-2 8,0 15,1 19,3 5,2 8,5 10,8 2,3 4,7 4,10 0,4 1,7 1,10l0 148zm-64 -223c0,-4 1,-7 2,-10 2,-3 4,-6 7,-8 3,-2 6,-4 10,-6 4,-1 8,-2 12,-2 4,0 8,1 12,2 4,1 7,3 10,6 3,2 5,5 7,8 2,3 2,7 2,10 0,4 -1,7 -2,10 -2,3 -4,6 -7,8 -3,2 -6,4 -10,6 -4,1 -8,2 -12,2 -4,0 -8,-1 -12,-2 -4,-1 -7,-3 -10,-6 -3,-2 -5,-5 -7,-8 -2,-3 -2,-7 -2,-10zm173 58c-3,0 -6,0 -8,1 -3,1 -5,2 -7,4 -2,2 -4,4 -5,6 -1,3 -2,6 -2,9 0,5 2,10 5,15 4,5 8,10 13,15 5,5 11,11 17,16 6,6 12,12 17,18 5,6 10,13 13,20 4,7 5,15 5,23 0,9 -2,17 -5,24 -3,7 -8,13 -13,18 -6,5 -13,9 -21,11 -8,3 -17,4 -27,4 -9,0 -17,-1 -24,-4 -7,-2 -13,-6 -19,-9 -6,-4 -10,-7 -14,-11 -4,-4 -7,-8 -9,-11l7 -5c2,2 4,4 6,6 3,2 5,4 8,6 3,2 6,3 10,5 4,1 7,2 11,2 9,0 17,-2 22,-7 6,-4 9,-11 9,-19 0,-5 -2,-10 -5,-15 -3,-5 -7,-10 -12,-16 -5,-5 -10,-11 -16,-17 -6,-6 -11,-12 -16,-18 -5,-6 -9,-13 -12,-19 -3,-7 -5,-13 -5,-21 0,-8 2,-15 5,-21 3,-6 8,-11 13,-15 5,-4 12,-7 18,-9 7,-2 14,-3 21,-3 8,0 16,1 23,2 7,2 13,4 18,7 5,3 9,7 12,12 3,5 4,10 4,16 0,5 -2,9 -5,13 -3,4 -8,5 -13,5 -5,0 -10,-1 -12,-4 -3,-2 -4,-6 -4,-10 0,-3 1,-5 2,-6 1,-2 3,-3 4,-4 2,-1 3,-2 4,-2 1,-1 2,-2 2,-3 0,-4 -2,-6 -6,-8 -4,-2 -9,-3 -15,-3zm144 1l0 140c0,7 1,11 4,14 3,3 6,4 10,4 3,0 6,-1 9,-3 3,-2 5,-4 7,-6 2,-3 4,-6 6,-9l6 3c-2,4 -4,8 -7,13 -3,5 -6,9 -10,13 -4,4 -10,8 -16,10 -7,3 -15,4 -25,4 -6,0 -11,-1 -16,-2 -5,-2 -10,-4 -14,-8 -4,-4 -7,-8 -10,-13 -2,-5 -4,-12 -4,-19l0 -140 -21 0 0 -14c4,0 8,-1 15,-3 6,-2 13,-5 19,-9 7,-4 13,-10 19,-17 6,-7 10,-16 12,-27l15 0 0 56 31 0c10,0 15,-2 15,-5 0,-1 -1,-2 -2,-3 -1,0 -3,-1 -4,-2 -2,-1 -3,-2 -4,-3 -1,-1 -2,-3 -2,-6 0,-4 1,-6 3,-8 2,-2 5,-3 9,-3 2,0 4,0 6,1 2,1 3,2 4,4 1,2 2,3 3,5 1,2 1,4 1,6 0,8 -2,15 -7,20 -5,5 -12,7 -23,7l-29 0zm134 163c0,2 0,4 -1,6 -1,2 -2,5 -4,7 -2,2 -5,4 -9,5 -4,1 -9,2 -16,2 -7,0 -12,-1 -16,-2 -4,-2 -7,-3 -9,-6 -2,-2 -3,-4 -3,-7 0,-2 -1,-4 -1,-6l0 -146c0,-4 -1,-7 -3,-10 -2,-3 -5,-4 -9,-4 -2,0 -4,0 -6,1 -2,1 -3,2 -5,3l-4 -5c3,-2 6,-5 10,-7 4,-2 8,-4 12,-6 4,-2 9,-3 13,-4 5,-1 10,-2 15,-2 8,0 15,1 19,3 5,2 8,5 10,8 2,3 4,7 4,10 0,4 1,7 1,10l0 148zm-64 -223c0,-4 1,-7 2,-10 2,-3 4,-6 7,-8 3,-2 6,-4 10,-6 4,-1 8,-2 12,-2 4,0 8,1 12,2 4,1 7,3 10,6 3,2 5,5 7,8 2,3 2,7 2,10 0,4 -1,7 -2,10 -2,3 -4,6 -7,8 -3,2 -6,4 -10,6 -4,1 -8,2 -12,2 -4,0 -8,-1 -12,-2 -4,-1 -7,-3 -10,-6 -3,-2 -5,-5 -7,-8 -2,-3 -2,-7 -2,-10zm170 223c0,2 0,4 -1,6 -1,2 -2,4 -4,6 -2,2 -5,4 -9,5 -4,1 -9,2 -16,2 -7,0 -12,-1 -16,-2 -4,-2 -7,-3 -8,-6 -2,-2 -3,-4 -3,-7 0,-2 -1,-4 -1,-6l0 -245c0,-4 -1,-7 -3,-10 -2,-3 -5,-4 -9,-4 -2,0 -4,0 -6,1 -2,1 -3,2 -5,3l-4 -5c3,-2 6,-5 10,-7 4,-2 7,-4 12,-6 4,-2 9,-3 14,-4 5,-1 10,-2 15,-2 8,0 15,1 19,3 5,2 8,5 10,8 2,3 3,7 4,10 0,4 1,7 1,10l0 247zm106 0c0,2 0,4 -1,6 -1,2 -2,4 -4,6 -2,2 -5,4 -9,5 -4,1 -9,2 -16,2 -7,0 -12,-1 -16,-2 -4,-2 -7,-3 -8,-6 -2,-2 -3,-4 -3,-7 0,-2 -1,-4 -1,-6l0 -245c0,-4 -1,-7 -3,-10 -2,-3 -5,-4 -9,-4 -2,0 -4,0 -6,1 -2,1 -3,2 -5,3l-4 -5c3,-2 6,-5 10,-7 4,-2 7,-4 12,-6 4,-2 9,-3 14,-4 5,-1 10,-2 15,-2 8,0 15,1 19,3 5,2 8,5 10,8 2,3 3,7 4,10 0,4 1,7 1,10l0 247zm97 -70c0,4 1,8 2,13 1,5 3,10 5,14 2,5 5,9 8,14 3,4 7,8 12,12 4,3 9,6 15,8 5,2 11,3 17,3 4,0 9,-1 12,-2 4,-1 7,-2 11,-4 3,-2 6,-4 9,-6 3,-2 6,-5 9,-7l5 5c-3,4 -7,8 -11,13 -5,5 -10,9 -17,13 -6,4 -14,8 -23,10 -9,3 -18,4 -29,4 -11,0 -22,-2 -32,-6 -10,-4 -20,-10 -28,-18 -8,-8 -15,-18 -19,-30 -5,-12 -7,-26 -7,-42 0,-11 1,-22 4,-32 3,-10 7,-18 12,-26 5,-8 11,-15 17,-20 7,-6 14,-11 21,-15 7,-4 15,-7 23,-9 8,-2 15,-3 22,-3 9,0 17,1 24,3 7,2 13,5 17,8 5,3 8,7 10,12 2,4 3,9 3,14 0,6 -2,11 -5,16 -3,5 -8,9 -14,12l-75 44zm38 -39c2,-1 3,-2 4,-3 1,-1 2,-2 3,-3 1,-1 1,-3 1,-5 0,-2 1,-4 1,-7 0,-3 0,-7 -1,-10 -1,-4 -2,-8 -4,-11 -2,-3 -4,-6 -6,-8 -3,-2 -6,-3 -9,-3 -5,0 -8,1 -12,4 -3,3 -6,6 -8,10 -2,4 -4,9 -5,15 -1,6 -2,11 -3,17 -1,6 -1,11 -1,16 0,5 0,9 0,13l40 -23zm153 -31c5,-7 10,-14 15,-20 2,-3 5,-5 7,-7 3,-2 5,-5 8,-6 3,-2 6,-3 9,-5 3,-1 6,-2 9,-2 6,0 11,2 15,6 4,4 6,9 6,16 0,4 0,8 -1,12 -1,4 -2,9 -4,15l-5 0c-1,-4 -3,-7 -5,-10 -3,-3 -7,-4 -12,-4 -4,0 -8,1 -12,2 -4,1 -8,3 -11,5 -4,2 -7,4 -10,7 -3,3 -6,5 -9,7l0 123c0,2 0,4 -1,6 -1,2 -2,4 -4,6 -2,2 -5,4 -9,5 -4,1 -9,2 -16,2 -7,0 -12,-1 -16,-2 -4,-2 -7,-3 -9,-6 -2,-2 -3,-4 -4,-7 -1,-2 -1,-4 -1,-6l0 -146c0,-4 -1,-7 -3,-10 -2,-3 -5,-4 -9,-4 -2,0 -4,0 -6,1 -2,1 -3,2 -5,3l-4 -5c3,-2 6,-5 10,-7 4,-2 8,-4 12,-6 4,-2 9,-3 13,-4 5,-1 10,-2 15,-2 5,0 10,1 14,2 4,1 7,3 9,6 2,2 4,5 6,8 1,3 2,6 3,9 1,3 1,6 1,9 0,3 0,5 0,7zm245 -10c0,23 -2,45 -7,67 -4,22 -11,42 -19,61 -8,19 -17,36 -28,52 -11,16 -23,29 -35,40 -13,11 -26,20 -40,26 -14,6 -29,9 -43,9 -11,0 -20,-2 -26,-6 -6,-4 -9,-9 -9,-15 0,-2 0,-5 1,-7 1,-2 2,-4 3,-6 1,-2 3,-3 5,-4 2,-1 4,-2 6,-2 2,0 4,1 6,4 2,2 3,5 5,8 2,3 4,6 6,8 3,2 6,4 10,4 6,0 12,-1 18,-3 6,-2 12,-5 19,-8 6,-4 13,-8 19,-13 6,-5 12,-11 19,-18 -4,-13 -8,-27 -12,-42 -5,-15 -9,-30 -15,-46 -5,-15 -10,-30 -16,-44 -5,-14 -11,-27 -16,-38 -5,-11 -10,-20 -15,-26 -5,-7 -9,-10 -13,-10 -2,0 -4,0 -6,1 -1,1 -3,2 -5,3l-4 -5c3,-2 5,-4 8,-7 3,-2 6,-4 10,-6 4,-2 8,-4 13,-5 5,-1 11,-2 18,-2 8,0 15,2 21,5 7,3 13,10 18,19 4,7 8,15 12,25 4,10 8,21 13,33 4,12 9,25 13,39 4,14 9,29 13,44 8,-16 14,-34 19,-52 5,-18 7,-37 7,-57 0,-7 0,-13 -1,-18 -1,-5 -2,-9 -3,-13 -1,-3 -2,-6 -3,-9 -1,-2 -1,-5 -1,-7 0,-2 1,-4 2,-5 1,-1 3,-2 6,-3 2,-1 4,-1 7,-2 2,0 4,0 6,0 3,0 6,1 8,2 2,1 3,3 4,6 1,3 1,6 1,9 0,4 0,8 0,12z"/>
  </g>
  <g id="_213911776">
  </g>
 </g>
</svg>